<svg id="Line" xmlns="http://www.w3.org/2000/svg" viewBox="0 0 24 24" width="48" height="48" fill="#f7f7f5"><path id="primary" d="M20.71,16.09,15.8,21H13V18.2l4.91-4.91a1,1,0,0,1,1.4,0l1.4,1.4A1,1,0,0,1,20.71,16.09ZM11,3a4,4,0,1,0,4,4A4,4,0,0,0,11,3Z" style="fill:#f7f7f5; stroke:#f7f7f5; stroke-linecap: round; stroke-linejoin: round; stroke-width: 1;"></path><path id="primary-2" data-name="primary" d="M11,15H8a5,5,0,0,0-5,5,1,1,0,0,0,1,1H9" style="fill:#f7f7f5; stroke:#f7f7f5; stroke-linecap: round; stroke-linejoin: round; stroke-width: 1;"></path></svg>